REM DIRINDEX 1\2\5,1\2\6,1\2\7,1\2\8,1\3\9,1\3\10,1\3\11,1\4\12,1\4\13,1\4\14,1\4\15,1\4\16
REM DIRNAME cjc034,folder01,folder02,folder03,folder04,folder05,folder06,folder07,folder08,folder09,folder10,folder11,folder12,folder13,folder14,folder15
TITLE ""
FILE "1200_2_sec03_0854_0871.mp3" MP3
  TRACK 01 AUDIO
    TITLE "0:"
    INDEX 01 00:00:00
  TRACK 02 AUDIO
    TITLE "10:cjc034_01757"
    INDEX 01 00:00:15
  TRACK 03 AUDIO
    TITLE "0:"
    INDEX 01 00:01:22
  TRACK 04 AUDIO
    TITLE "9:cjc034_01758"
    INDEX 01 00:01:32
  TRACK 05 AUDIO
    TITLE "0:"
    INDEX 01 00:02:28
  TRACK 06 AUDIO
    TITLE "11:cjc034_01759"
    INDEX 01 00:04:03
  TRACK 07 AUDIO
    TITLE "0:"
    INDEX 01 00:08:17
  TRACK 08 AUDIO
    TITLE "10:cjc034_01760"
    INDEX 01 00:09:22
  TRACK 09 AUDIO
    TITLE "0:"
    INDEX 01 00:10:08
  TRACK 10 AUDIO
    TITLE "9:cjc034_01761"
    INDEX 01 00:10:14
  TRACK 11 AUDIO
    TITLE "0:"
    INDEX 01 00:11:42
  TRACK 12 AUDIO
    TITLE "10:cjc034_01762"
    INDEX 01 00:12:26
  TRACK 13 AUDIO
    TITLE "0:"
    INDEX 01 00:13:37
  TRACK 14 AUDIO
    TITLE "9:cjc034_01763"
    INDEX 01 00:13:41
  TRACK 15 AUDIO
    TITLE "0:"
    INDEX 01 00:14:56
  TRACK 16 AUDIO
    TITLE "10:cjc034_01764"
    INDEX 01 00:15:38
  TRACK 17 AUDIO
    TITLE "0:"
    INDEX 01 00:17:06
  TRACK 18 AUDIO
    TITLE "9:cjc034_01765"
    INDEX 01 00:17:16
  TRACK 19 AUDIO
    TITLE "0:"
    INDEX 01 00:18:33
  TRACK 20 AUDIO
    TITLE "10:cjc034_01766"
    INDEX 01 00:19:30
  TRACK 21 AUDIO
    TITLE "0:"
    INDEX 01 00:20:26
  TRACK 22 AUDIO
    TITLE "9:cjc034_01767"
    INDEX 01 00:20:34
  TRACK 23 AUDIO
    TITLE "0:"
    INDEX 01 00:21:39
  TRACK 24 AUDIO
    TITLE "10:cjc034_01768"
    INDEX 01 00:22:25
  TRACK 25 AUDIO
    TITLE "0:"
    INDEX 01 00:23:63
  TRACK 26 AUDIO
    TITLE "9:cjc034_01769"
    INDEX 01 00:23:67
  TRACK 27 AUDIO
    TITLE "0:"
    INDEX 01 00:24:74
  TRACK 28 AUDIO
    TITLE "10:cjc034_01770"
    INDEX 01 00:25:56
  TRACK 29 AUDIO
    TITLE "0:"
    INDEX 01 00:27:00
  TRACK 30 AUDIO
    TITLE "9:cjc034_01771"
    INDEX 01 00:27:04
  TRACK 31 AUDIO
    TITLE "0:"
    INDEX 01 00:28:27
  TRACK 32 AUDIO
    TITLE "10:cjc034_01772"
    INDEX 01 00:29:07
  TRACK 33 AUDIO
    TITLE "0:"
    INDEX 01 00:30:18
  TRACK 34 AUDIO
    TITLE "9:cjc034_01773"
    INDEX 01 00:30:26
  TRACK 35 AUDIO
    TITLE "0:"
    INDEX 01 00:31:37
  TRACK 36 AUDIO
    TITLE "10:cjc034_01774"
    INDEX 01 00:32:21
  TRACK 37 AUDIO
    TITLE "0:"
    INDEX 01 00:33:32
  TRACK 38 AUDIO
    TITLE "9:cjc034_01775"
    INDEX 01 00:33:34
  TRACK 39 AUDIO
    TITLE "0:"
    INDEX 01 00:34:30
  TRACK 40 AUDIO
    TITLE "10:cjc034_01776"
    INDEX 01 00:35:14
  TRACK 41 AUDIO
    TITLE "0:"
    INDEX 01 00:36:19
  TRACK 42 AUDIO
    TITLE "9:cjc034_01777"
    INDEX 01 00:36:27
  TRACK 43 AUDIO
    TITLE "0:"
    INDEX 01 00:37:26
  TRACK 44 AUDIO
    TITLE "10:cjc034_01778"
    INDEX 01 00:38:08
  TRACK 45 AUDIO
    TITLE "0:"
    INDEX 01 00:38:69
  TRACK 46 AUDIO
    TITLE "9:cjc034_01779"
    INDEX 01 00:39:00
  TRACK 47 AUDIO
    TITLE "0:"
    INDEX 01 00:40:09
  TRACK 48 AUDIO
    TITLE "10:cjc034_01780"
    INDEX 01 00:40:72
  TRACK 49 AUDIO
    TITLE "0:"
    INDEX 01 00:41:49
  TRACK 50 AUDIO
    TITLE "9:cjc034_01781"
    INDEX 01 00:41:55
  TRACK 51 AUDIO
    TITLE "0:"
    INDEX 01 00:42:59
  TRACK 52 AUDIO
    TITLE "10:cjc034_01782"
    INDEX 01 00:43:44
  TRACK 53 AUDIO
    TITLE "0:"
    INDEX 01 00:44:38
  TRACK 54 AUDIO
    TITLE "9:cjc034_01783"
    INDEX 01 00:44:42
  TRACK 55 AUDIO
    TITLE "0:"
    INDEX 01 00:45:47
  TRACK 56 AUDIO
    TITLE "10:cjc034_01784"
    INDEX 01 00:46:33
  TRACK 57 AUDIO
    TITLE "0:"
    INDEX 01 00:47:21
  TRACK 58 AUDIO
    TITLE "9:cjc034_01785"
    INDEX 01 00:47:27
  TRACK 59 AUDIO
    TITLE "0:"
    INDEX 01 00:48:36
  TRACK 60 AUDIO
    TITLE "10:cjc034_01786"
    INDEX 01 00:49:21
  TRACK 61 AUDIO
    TITLE "0:"
    INDEX 01 00:50:03
  TRACK 62 AUDIO
    TITLE "9:cjc034_01787"
    INDEX 01 00:50:07
  TRACK 63 AUDIO
    TITLE "0:"
    INDEX 01 00:51:01
  TRACK 64 AUDIO
    TITLE "10:cjc034_01788"
    INDEX 01 00:51:69
  TRACK 65 AUDIO
    TITLE "0:"
    INDEX 01 00:52:57
  TRACK 66 AUDIO
    TITLE "9:cjc034_01789"
    INDEX 01 00:52:61
  TRACK 67 AUDIO
    TITLE "0:"
    INDEX 01 00:53:74
  TRACK 68 AUDIO
    TITLE "11:cjc034_01790"
    INDEX 01 00:55:48
  TRACK 69 AUDIO
    TITLE "0:"
    INDEX 01 01:00:33
  TRACK 70 AUDIO
    TITLE "10:cjc034_01791"
    INDEX 01 01:01:38
  TRACK 71 AUDIO
    TITLE "0:"
    INDEX 01 01:02:63
  TRACK 72 AUDIO
    TITLE "9:cjc034_01792"
    INDEX 01 01:03:00
  TRACK 73 AUDIO
    TITLE "0:"
    INDEX 01 01:04:11
  TRACK 74 AUDIO
    TITLE "10:cjc034_01793"
    INDEX 01 01:04:68
  TRACK 75 AUDIO
    TITLE "0:"
    INDEX 01 01:06:73
  TRACK 76 AUDIO
    TITLE "9:cjc034_01794"
    INDEX 01 01:07:02
  TRACK 77 AUDIO
    TITLE "0:"
    INDEX 01 01:08:19
